<svg xmlns="http://www.w3.org/2000/svg" width="500" height="404.07" viewBox="0 0 500 404.07">
  <defs>
    <style>
      .cls-1 {
        fill: #9b8a83;
      }

      .cls-2 {
        fill: #a8988e;
      }

      .cls-3 {
        fill: #bfafa6;
      }

      .cls-4 {
        fill: #baaba4;
      }

      .cls-5 {
        fill: #ddd3ce;
      }

      .cls-6 {
        fill: #d1c0b6;
      }

      .cls-7 {
        fill: #7c4a28;
      }

      .cls-8 {
        fill: #683b1c;
      }

      .cls-9 {
        fill: #472712;
      }

      .cls-10 {
        fill: #3a3a3a;
      }

      .cls-11 {
        fill: #666;
      }

      .cls-12 {
        fill: #262626;
      }

      .cls-13 {
        fill: #875532;
      }

      .cls-14 {
        fill: #4f2c14;
      }

      .cls-15 {
        fill: #3a1f0d;
      }

      .cls-16 {
        fill: #968780;
      }

      .cls-17 {
        fill: #8c7c73;
      }

      .cls-18 {
        fill: #fff;
      }

      .cls-19 {
        fill: #998981;
      }

      .cls-20 {
        fill: #563017;
      }

      .cls-21 {
        fill: #84756e;
      }

      .cls-22 {
        fill: #472313;
      }

      .cls-23 {
        fill: #191919;
      }

      .cls-24 {
        fill: #776862;
      }

      .cls-25 {
        fill: #a09087;
      }
    </style>
  </defs>
  <title>Dog</title>
  <g id="Слой_2" data-name="Слой 2">
    <g id="Lager_1" data-name="Lager 1">
      <g>
        <path class="cls-1" d="M220.15,249a141.36,141.36,0,0,0-18.27-9,127.14,127.14,0,0,0-26.55-7.21,109.82,109.82,0,0,0,3.2,16.27c4.34,15.06,5.46,22.94,5,29.26s-1.23,16.08,2.06,25.86.09,25.23-3.24,25.94-12.22-.07-14.47,1.59c-2.73,2-14.35,10.17-4.13,16.24.46,6.58,14.21,9.36,18.67,8.94s20.23-2.69,24.11-8.17,2.13-15.24,5.91-21.88,2.29-9.84,1-13.59C212.68,310.86,214.24,278.78,220.15,249Z"/>
        <path class="cls-2" d="M339.56,291.75c22.12-3.57-149.69-182.88-211.91-230.89-9.08-7-71.22-31.48-72.95-27.84s-3.45,11.9-13.63,17.85S3.69,73,3.69,73,6,87.68,11.32,93.73s8.64,7.2,8.64,7.2.43,5.9,7.2,8.35,15.41,3.89,39.31.43,30.23-1.44,35.56,6.77S115.37,144,116.13,157s-8.93,31,6.91,60.09,23,29.95,23,29.95,1.44,17.85,6.91,32.54,7.2,22.46,7.2,28.8a89.15,89.15,0,0,0,.88,14.36l9.39-.52c6.45-.34,13.59-1.4,20.26-1.1-.76-14.52-.89-33.2,1.14-42.69,12.38,3.46,25.05,12.38,30.81,17s23.88,21,44.35,27.36Z"/>
        <path class="cls-2" d="M415.47,305.9a277.64,277.64,0,0,1-63.86,18.77c-28.38,4.58-56.34-7-84.59-1.87-3.46,13.54,2.36,26.15,8.35,33.4-11.81-4.32-31.24-6.34-25.2,12.45-3.1,4.39-.29,14.07,10.38,14.24,9.42.15,26,4.31,36.61,8.72s33,15,43.58,11.9,12.48-11.9,8.25-19.39c12.29,3.07,38.47-1.69,49.72-9.4,11.42-7.83,28.41-22.27,22.08-49.34C419.36,319.3,417.67,312.76,415.47,305.9Z"/>
        <path class="cls-3" d="M415.47,305.9a277.64,277.64,0,0,1-63.86,18.77c-28.38,4.58-56.34-7-84.59-1.87-3.46,13.54,2.36,26.15,8.35,33.4-11.81-4.32-29.86-6.11-21.5,10.55-3.1,4.39-1.54,12.32,9.12,12.49,9.42.15,24.28,4.59,35,8.64,11.51,4.36,27,10.41,37.6,7.34s4.51-14.29,2.57-21.74c-1.57-6,33.69,9.44,61.48-7.5,11.82-7.21,23.47-24.6,21.16-40.58C419.9,319.2,417.67,312.76,415.47,305.9Z"/>
        <path class="cls-4" d="M227.24,266.88c3.15-4.1,59.3-70.95,72.48-86.08-29.25-19.56-56.88-36.67-66.48-43.92C216,123.82,205.69,116,185,78.9S155.3,17,129,6.72c-10.68-4.17-29.37-9-45.88,0S56.43,29.37,54.7,33s-3.45,11.9-13.63,17.85S7.57,70.65,7.57,70.65a57.82,57.82,0,0,0,8.48,13.27S21.4,95.75,34.35,98C44.74,99.9,50,97.91,63.55,94.81c12.85-2.95,37.9,8.73,63.22-4.72,0,0-.84,46.11-4.26,72.73-1.67,13-15.29,25.21.54,54.3s23,29.95,23,29.95,1.44,17.85,6.91,32.54,7.2,22.46,7.2,28.8,0,16.13,4,25.63,2,25.15-1.25,26.11-12.19.87-14.3,2.69c-2.57,2.22-13.53,11.24-2.88,16.51,1,6.53,14.88,8.25,19.29,7.49s20-4.22,23.42-10,1-15.36,4.22-22.27,1.53-10,0-13.63c-1.17-2.78-2.24-50.16,4.9-84.08,2-9.3-2.85-11.76-4-21.6C202.32,247.13,214.12,257.74,227.24,266.88Z"/>
        <path class="cls-5" d="M129,6.72c-10.68-4.17-29.37-9-45.88,0S56.43,29.37,54.7,33s-3.45,11.9-13.63,17.85S7.57,70.65,7.57,70.65a57.82,57.82,0,0,0,8.48,13.27S21.4,95.75,34.35,98C44.74,99.9,50,97.91,63.55,94.81c12.85-2.95,37.9,8.73,63.22-4.72,0,0,3,38.72-1.61,73.85-1.7,13-10.46,26.36,4.51,49.72,8.76,13.67,14.83,17.57,14.83,17.57s2,30.81,8.49,48.38c5.46,14.69,7.2,22.46,7.2,28.8s0,16.13,4,25.63,2,25.15-1.25,26.11-12.19.87-14.3,2.69c-2.57,2.22-10.23,6.79.43,12.06,1.3,5.47,13.17,5.46,16,5.22,3.26-.29,13.92-2.59,17.37-8.35s.67-11.15,3.93-18.06,1.53-16,0-19.66c-1.17-2.78-1.38-44.5,5.76-78.42,2-9.3-3.17-12.48-1.76-24.26,22.78,24.27,56.76,50.27,87,61.79,6.89,2.63-8.35,12.67-10.37,29.66-1.08,9.09,2.09,21.91,11.23,18.43,68.82-26.2,63.64-3.5,97.33-1.73,21.88,1.15,48.3-4.1,40.75-30.86-5.54-19.67-13.4-46.22-51.79-80s-114-78.71-131.31-91.76S205.69,116,185,78.9,155.3,17,129,6.72Z"/>
        <path class="cls-6" d="M124.92,10.8C114.1,7,83.84,10.68,83.84,10.68,66.07,16.85,55.52,30.6,54.13,34.6,52.8,38.42,52,50.11,42.49,56.66,29.17,65.85,12,75,12,75l4,9S21.4,95.75,34.35,98C44.74,99.9,50,97.91,63.55,94.81c12.85-2.95,37.9,8.73,63.22-4.72,0,0,3,38.72-1.61,73.85-1.7,13-10.46,26.36,4.51,49.72,8.76,13.67,14.83,17.57,14.83,17.57s2,30.81,8.49,48.38c5.46,14.69,7.2,22.46,7.2,28.8s0,16.13,4,25.63,2,25.15-1.25,26.11-12.19.87-14.3,2.69c-2.57,2.22-10.23,6.79.43,12.06,1.3,5.47,13.17,5.46,16,5.22,3.26-.29,13.92-2.59,17.37-8.35s.67-11.15,3.93-18.06,1.53-16,0-19.66c-1.17-2.78-1.38-44.5,5.76-78.42,2-9.3-3.17-12.48-1.76-24.26,22.78,24.27,56.76,50.27,87,61.79,6.89,2.63-8.35,12.67-10.37,29.66-1.08,9.09,2.09,21.91,11.23,18.43,68.82-26.2,63.64-3.5,97.33-1.73,21.88,1.15,48.3-4.1,40.75-30.86-5.54-19.67-15.21-49.49-56.88-79.14C315.11,197.94,250.32,167,230.16,151.18c-17-13.38-29.51-30.81-52.6-78.42C159,34.48,160.48,23.33,124.92,10.8Z"/>
        <path class="cls-7" d="M145.09,23.75c-5.22-13-16-20.3-38.89-22.09A71.78,71.78,0,0,0,66.23,26C60.55,32.82,60,34.6,60,34.6,53.5,50.61,57,61.36,53.76,69c-2.25,5.35-2.61,9.46.32,15.25,2.74,5.42,12.18,9.71,18.42,10.22,8.53.7,19.57,2.65,28.08,2.46,32.83-.72,44-23.21,45.56-34.2C147.89,50.33,149.89,35.69,145.09,23.75Z"/>
        <path class="cls-8" d="M145.09,23.75c-3.43-7.14-14.1-14.18-37-16-14.45-1.15-24.27,2.9-24.27,2.9A71.71,71.71,0,0,0,66.23,26C60.55,32.82,60,34.6,60,34.6,53.5,50.61,57,61.36,53.76,69c-2.25,5.35-8.08,8.58-2.71,17,4,6.27,15.2,7.94,21.44,8.45,8.53.7,19.57,2.65,28.08,2.46,32.83-.72,44-23.21,45.56-34.2C147.89,50.33,150.66,35.35,145.09,23.75Z"/>
        <path class="cls-9" d="M79.13,58.41c5.62-1.62,12.17-3.89,4.37-9.08-6.83-4.55-14.16-3.06-23.71-14.14a59,59,0,0,0-4.26,22S64,62.78,79.13,58.41Z"/>
        <path class="cls-7" d="M328.77,233.94c-2.22-12.35,4.87-26.23,13-23.59-40-30.07-94.28-62.68-108.57-73.48-11.14-8.42-19.38-14.68-29.38-28l-6.43,2c-16.67,8.58-9.22,40.16-18.51,59.07-15.84,32.25,14.69,65.37,14.69,65.37,18.33,26,55.94,47.27,83.79,57.88,4.07,1.55.41,5.7-3.68,12.34,11.87,11.15,32.72,8.31,46.66,3.14s23.63-18.7,23-33.69C342.66,257,331.33,248.22,328.77,233.94Z"/>
        <path class="cls-8" d="M328.77,233.94c-1.32-7.33,1.83-16.57,5.35-21.2,0,0-54.67-33.3-100.76-63.59-22.87-15-35.93-38.33-35.93-38.33-16.67,8.58-9.22,40.16-18.51,59.07-15.84,32.25,14.69,65.37,14.69,65.37,18.33,26,55.94,47.27,83.79,57.88,4.07,1.55.41,5.7-3.68,12.34,11.87,11.15,32.72,8.31,46.66,3.14s23.63-18.7,23-33.69C342.66,257,331.33,248.22,328.77,233.94Z"/>
        <path class="cls-10" d="M10.46,69S-.13,72.49,0,75.95s1.37,7.34,8.66,13.7C14.69,86.44,30,73.24,10.46,69Z"/>
        <path class="cls-11" d="M10.46,69S-.47,72.53,0,75.95c.15,1.06,4.68.52,9-.29C15.57,74.44,21.88,71.51,10.46,69Z"/>
        <path class="cls-12" d="M20,100.93a67.7,67.7,0,0,0,33,.91C47.41,104.62,30.08,108,21.5,105A7.23,7.23,0,0,1,20,100.93Z"/>
        <path class="cls-13" d="M91.16,46.27c-.93,3-5.53.67-12.47-1.52s-11-6.38-10.09-9.34S75.24,31.53,82.07,34C88,36.23,92.09,43.31,91.16,46.27Z"/>
        <path class="cls-14" d="M113.91,19c-.77-9.8,1.42-13.28,1.42-13.28,13,2.09,24.91,8.14,45,7.86,11.4-.16-1.13,55.16-19,55.65C128.37,69.61,115.2,35.57,113.91,19Z"/>
        <path class="cls-15" d="M114,13.69C113.65,8.55,114.31-2,128.7.33c13,2.09,13.13,8.12,33.23,7.84,11.4-.16-.77,56.13-18.6,56.63C130.31,65.16,114.84,28.65,114,13.69Z"/>
        <path class="cls-14" d="M145,17c10.87.66,18.33.53,21.23-1.63-.38-4.42-1.75-7.25-4.32-7.22-20.1.28-20.28-5.75-33.23-7.84-10.2-1.65-14.06,3.09-14.45,7.95C114,10.92,134.39,16.38,145,17Z"/>
        <path class="cls-16" d="M275.37,356.2a104.52,104.52,0,0,0,40.41,23.9c-7.68,0-37.55-5.72-49.47-26.34A52.12,52.12,0,0,1,275.37,356.2Z"/>
        <path class="cls-17" d="M250.18,368.66s4.82-4.39,16.34-2.52c-4.53-4.18-14.15-3-17.26-1.21C249.65,366.83,250.18,368.66,250.18,368.66Z"/>
        <path class="cls-17" d="M145.79,379.34s5-7.39,7.58-8.54,8.35-1.44,8.35-1.44-6.72-1.73-11.14.87a25.92,25.92,0,0,0-7.48,7.38A7,7,0,0,0,145.79,379.34Z"/>
        <circle cx="71.17" cy="51.55" r="6.09"/>
        <circle class="cls-18" cx="72.5" cy="49.33" r="1.94"/>
        <path class="cls-2" d="M414.36,357.67s20.27,43.43,69.35,27C490.89,382.31,500,376.5,500,374c0-7.1-43,16.85-57.71-16.51-9.79-22.27-21.2-30.7-21.2-30.7S406.39,338.25,414.36,357.67Z"/>
        <path class="cls-3" d="M417,351s23.25,40.82,64.72,28.62c7.26-2.14,8.21-3.53,8.21-4.75,0-2.66-34.7,12.17-47.68-17.39-9.78-22.27-21.2-30.7-21.2-30.7S409.08,331.57,417,351Z"/>
        <path class="cls-7" d="M132.43,76.77c-1.25,7.2-11.26,11.56-22.37,9.74S91,77.38,92.2,70.18s11.26-11.56,22.37-9.74S133.68,69.57,132.43,76.77Z"/>
        <path class="cls-19" d="M59.78,35.18s-1.87-1.76-4,1.44S51,47.39,55.52,57.17C55.5,57.64,56.11,44.28,59.78,35.18Z"/>
        <path class="cls-20" d="M190.39,231.35a44.44,44.44,0,0,1,4.39-16c-2.33,11.9-1.18,19.93-1.18,19.93Z"/>
        <path class="cls-20" d="M193.59,235.26s20.52,31.9,83.79,57.88c-30.33-8.25-60.66,0-81.63-26,.89-4.68,2.68-13.37,2.18-16.57C197.27,246.27,193.31,239.51,193.59,235.26Z"/>
        <path class="cls-21" d="M194.17,279.16s1.25-9.86,1.59-12c1,1.21,4.9,5.31,4.9,5.31l-1,8.79S195.9,279.76,194.17,279.16Z"/>
        <path class="cls-22" d="M195.76,267.16s2.3-12,2.3-15.63-7.5-11.3-4.39-28.66c.31,6.35.51,14.33,5.4,22.11,4.53,7.2,2.88,15.41,1.59,27.49Z"/>
        <path class="cls-23" d="M17.95,75.49s-4.32,4.32-6.33,4.22S6,77.22,5.18,77.61s.38,3,2.11,4.22S12.79,82.6,17.95,75.49Z"/>
        <circle class="cls-24" cx="16.7" cy="92.06" r="0.51"/>
        <circle class="cls-24" cx="24.01" cy="88.66" r="0.51"/>
        <circle class="cls-24" cx="27.82" cy="98.19" r="0.51"/>
        <circle class="cls-24" cx="22.44" cy="93.59" r="0.51"/>
        <circle class="cls-24" cx="29.14" cy="92.06" r="0.51"/>
        <circle class="cls-24" cx="34.89" cy="88.66" r="0.51"/>
        <circle class="cls-24" cx="33.05" cy="93.59" r="0.51"/>
        <circle class="cls-24" cx="40.18" cy="92.57" r="0.51"/>
        <circle class="cls-24" cx="38.07" cy="96.47" r="0.51"/>
        <path class="cls-25" d="M144.65,68.54s.72-2.34,1.2-4.19c2.55-1,9.5-5.1,14.43-18.28C160.28,46.08,154.92,64.8,144.65,68.54Z"/>
      </g>
    </g>
  </g>
</svg>
